<svg width="0" height="0" style="position: absolute; width: 0; height: 0; overflow: hidden;" xmlns="http://www.w3.org/2000/svg" xmlns:xlink="http://www.w3.org/1999/xlink">
<defs>
  <symbol viewBox="0 0 19 19" id="close">
    <path d="M13.8 4.6L9.5 8.89 5.21 4.6l-.61.61 4.29 4.3-4.29 4.28.61.62 4.3-4.3 4.28 4.3.62-.62-4.3-4.29 4.3-4.29" fill-rule="evenodd"></path>
  </symbol>
  <symbol fill="none" aria-label="Home" viewBox="0 0 24 24" id="home">
    <path d="M4.5 10.75v10.5c0 .14.11.25.25.25h5c.14 0 .25-.11.25-.25v-5.5c0-.14.11-.25.25-.25h3.5c.14 0 .25.11.25.25v5.5c0 .14.11.25.25.25h5c.14 0 .25-.11.25-.25v-10.5M22 9l-9.1-6.83a1.5 1.5 0 0 0-1.8 0L2 9" stroke="currentColor" stroke-linecap="round" stroke-linejoin="round"></path>
  </symbol>
  <symbol fill="none" aria-label="Lists" viewBox="0 0 24 24" id="lists">
    <path d="M4.5 6.25V21c0 .2.24.32.4.2l5.45-4.09a.25.25 0 0 1 .3 0l5.45 4.09c.16.12.4 0 .4-.2V6.25a.25.25 0 0 0-.25-.25H4.75a.25.25 0 0 0-.25.25z" stroke="currentColor" stroke-linecap="round"></path>
    <path d="M8 6V3.25c0-.14.11-.25.25-.25h11.5c.14 0 .25.11.25.25V16.5" stroke="currentColor" stroke-linecap="round"></path>
  </symbol>
  <symbol fill="none" viewBox="0 0 8 11" id="lock">
    <path fill-rule="evenodd" clip-rule="evenodd" d="M2.18 2.6a1.82 1.82 0 0 1 3.64 0v2.07H2.18V2.6zm4.37 2.07V2.6C6.55 1.17 5.4 0 4 0a2.58 2.58 0 0 0-2.55 2.6v2.07c-.39 0-.75.17-1.03.46-.27.3-.42.7-.42 1.12v3.17a1.7 1.7 0 0 0 .42 1.12c.14.14.3.26.47.34.18.08.37.12.56.12h5.1c.39 0 .75-.17 1.03-.47.27-.3.42-.7.42-1.11V6.25a1.7 1.7 0 0 0-.42-1.12c-.14-.14-.3-.26-.47-.34a1.35 1.35 0 0 0-.56-.12z" fill="#757575"></path>
  </symbol>
  <symbol fill="none" viewBox="0 0 24 24" id="more">
    <path fill-rule="evenodd" clip-rule="evenodd" d="M4.39 12c0 .55.2 1.02.59 1.41.39.4.86.59 1.4.59.56 0 1.03-.2 1.42-.59.4-.39.59-.86.59-1.41 0-.55-.2-1.02-.6-1.41A1.93 1.93 0 0 0 6.4 10c-.55 0-1.02.2-1.41.59-.4.39-.6.86-.6 1.41zM10 12c0 .55.2 1.02.58 1.41.4.4.87.59 1.42.59.54 0 1.02-.2 1.4-.59.4-.39.6-.86.6-1.41 0-.55-.2-1.02-.6-1.41a1.93 1.93 0 0 0-1.4-.59c-.55 0-1.04.2-1.42.59-.4.39-.58.86-.58 1.41zm5.6 0c0 .55.2 1.02.57 1.41.4.4.88.59 1.43.59.57 0 1.04-.2 1.43-.59.39-.39.57-.86.57-1.41 0-.55-.2-1.02-.57-1.41A1.93 1.93 0 0 0 17.6 10c-.55 0-1.04.2-1.43.59-.38.39-.57.86-.57 1.41z" fill="#000"></path>
  </symbol>
  <symbol fill="none" aria-label="Notifications" viewBox="0 0 24 24" id="notification">
    <path d="M15 18.5a3 3 0 1 1-6 0" stroke="currentColor" stroke-linecap="round"></path>
    <path d="M5.5 10.53V9a6.5 6.5 0 0 1 13 0v1.53c0 1.42.56 2.78 1.57 3.79l.03.03c.26.26.4.6.4.97v2.93c0 .14-.11.25-.25.25H3.75a.25.25 0 0 1-.25-.25v-2.93c0-.37.14-.71.4-.97l.03-.03c1-1 1.57-2.37 1.57-3.79z" stroke="currentColor" stroke-linejoin="round"></path>
  </symbol>
  <symbol fill="none" viewBox="0 0 24 24" id="save">
    <path d="M17.5 1.25a.5.5 0 0 1 1 0v2.5H21a.5.5 0 0 1 0 1h-2.5v2.5a.5.5 0 0 1-1 0v-2.5H15a.5.5 0 0 1 0-1h2.5v-2.5zm-11 4.5a1 1 0 0 1 1-1H11a.5.5 0 0 0 0-1H7.5a2 2 0 0 0-2 2v14a.5.5 0 0 0 .8.4l5.7-4.4 5.7 4.4a.5.5 0 0 0 .8-.4v-8.5a.5.5 0 0 0-1 0v7.48l-5.2-4a.5.5 0 0 0-.6 0l-5.2 4V5.75z" fill="#000"></path>
  </symbol>
  <symbol fill="none" aria-label="Stories" viewBox="0 0 24 24" id="stories">
    <path d="M4.75 21.5h14.5c.14 0 .25-.11.25-.25V2.75a.25.25 0 0 0-.25-.25H4.75a.25.25 0 0 0-.25.25v18.5c0 .14.11.25.25.25z" stroke="currentColor"></path>
    <path d="M8 8.5h8M8 15.5h5M8 12h8" stroke="currentColor" stroke-linecap="round"></path>
  </symbol>
  <symbol fill="none" aria-label="Write" viewBox="0 0 24 24" id="write">
    <path d="M14 4a.5.5 0 0 0 0-1v1zm7 6a.5.5 0 0 0-1 0h1zm-7-7H4v1h10V3zM3 4v16h1V4H3zm1 17h16v-1H4v1zm17-1V10h-1v10h1zm-1 1a1 1 0 0 0 1-1h-1v1zM3 20a1 1 0 0 0 1 1v-1H3zM4 3a1 1 0 0 0-1 1h1V3z" fill="currentColor"></path>
    <path d="M17.5 4.5l-8.46 8.46a.25.25 0 0 0-.06.1l-.82 2.47c-.07.2.12.38.31.31l2.47-.82a.25.25 0 0 0 .1-.06L19.5 6.5m-2-2l2.32-2.32c.1-.1.26-.1.36 0l1.64 1.64c.1.1.1.26 0 .36L19.5 6.5m-2-2l2 2" stroke="currentColor"></path>
  </symbol>
  </defs>
</svg>
